name C:\Users\u0101727\Documents\MyRepositories\predictivesimulations\OpenSimModel\subject1\EMG\EMG_gait_15.mot
datacolumns 25
datarows 7
range 2.71600000 2.72200000
endheader
time	HamL_r	TA_r	PerL_r	GL_r	HamM_r	Sol_r	VL_r	VM_r	PerB_l	TA_l	PerL_l	GL_l	GM_l	Sol_l	VL_l	VM_l	AddL_l	RF_l	TFL_l	GluMed_l	HamL_l	HamM_l	GluMed_r	RF_r	
          2.71600000	          0.00541094	          0.00383303	          0.05125871	          0.00384758	          0.00694868	          0.02408394	          0.00649164	          0.00421393	          0.01311698	          0.10772542	          0.03159480	          0.01393034	          0.01464812	          0.01725883	          0.02217072	          0.02322083	          0.01118832	          0.01109655	          0.01220491	          0.02686281	          0.01735474	          0.04331112	          0.00634238	          0.00489601	
          2.71700000	          0.00539985	          0.00382568	          0.05093663	          0.00384485	          0.00697954	          0.02308628	          0.00648015	          0.00420749	          0.01323500	          0.10816033	          0.03190838	          0.01401287	          0.01470124	          0.01746068	          0.02206467	          0.02366454	          0.01121011	          0.01129169	          0.01274689	          0.02757725	          0.01738182	          0.04291438	          0.00636137	          0.00485548	
          2.71800000	          0.00539035	          0.00381631	          0.05055711	          0.00384386	          0.00700685	          0.02211443	          0.00646762	          0.00419943	          0.01336033	          0.10861295	          0.03222900	          0.01410279	          0.01476145	          0.01766896	          0.02201861	          0.02415451	          0.01123843	          0.01150101	          0.01330839	          0.02829197	          0.01739920	          0.04247420	          0.00637737	          0.00481373	
          2.71900000	          0.00538249	          0.00380513	          0.05011802	          0.00384467	          0.00703085	          0.02116879	          0.00645383	          0.00418978	          0.01349301	          0.10908774	          0.03255637	          0.01420108	          0.01482968	          0.01788402	          0.02203331	          0.02469137	          0.01127402	          0.01172471	          0.01388938	          0.02900572	          0.01740659	          0.04199324	          0.00639050	          0.00477084	
          2.72000000	          0.00537633	          0.00379238	          0.04961826	          0.00384731	          0.00705175	          0.02024970	          0.00643863	          0.00417859	          0.01363296	          0.10958901	          0.03288984	          0.01430861	          0.01490676	          0.01810611	          0.02210933	          0.02527549	          0.01131762	          0.01196287	          0.01448982	          0.02971749	          0.01740372	          0.04147435	          0.00640083	          0.00472695	
          2.72100000	          0.00537194	          0.00377830	          0.04905797	          0.00385179	          0.00706978	          0.01935754	          0.00642195	          0.00416596	          0.01377992	          0.11012091	          0.03322853	          0.01442614	          0.01499342	          0.01833529	          0.02224705	          0.02590708	          0.01136995	          0.01221547	          0.01510958	          0.03042658	          0.01739033	          0.04092042	          0.00640842	          0.00468218	
          2.72200000	          0.00536939	          0.00376315	          0.04843848	          0.00385808	          0.00708510	          0.01849272	          0.00640372	          0.00415201	          0.01393351	          0.11068772	          0.03357131	          0.01455428	          0.01509026	          0.01857153	          0.02244661	          0.02658624	          0.01143177	          0.01248236	          0.01574841	          0.03113228	          0.01736612	          0.04033416	          0.00641331	          0.00463669	
